<svg xmlns="http://www.w3.org/2000/svg" width="22" height="22" version="1.1">
 <defs>
  <style id="current-color-scheme" type="text/css">
   .ColorScheme-Text { color:#21091f; } .ColorScheme-Highlight { color:#721f6a; } .ColorScheme-NeutralText { color:#ef8d6c; } .ColorScheme-PositiveText { color:#e95e2f; } .ColorScheme-NegativeText { color:#671c60; }
  </style>
 </defs>
 <g transform="translate(-385 125)">
  <path style="fill:currentColor" class="ColorScheme-NeutralText" d="m10.912 3.002a1.6243 1.8185 0 0 0 -1.3182 0.9062l-3.1876 6.1818-3.1894 6.181a1.6243 1.8185 0 0 0 -0.2168 0.868 1.6243 1.8185 0 0 0 1.623 1.861h6.377 6.375a1.6243 1.8185 0 0 0 1.406 -2.729l-3.187-6.181-3.188-6.1818a1.6243 1.8185 0 0 0 -1.332 -0.9062 1.6243 1.8185 0 0 0 -0.162 0zm-0.912 3.998h2v7h-2v-7zm0 8h2v2h-2v-2z" transform="translate(385 -125)"/>
 </g>
</svg>
