<svg xmlns="http://www.w3.org/2000/svg" width="22" height="22" version="1.1">
 <defs>
  <style id="current-color-scheme" type="text/css">
   .ColorScheme-Text { color:#21091f; } .ColorScheme-Highlight { color:#721f6a; } .ColorScheme-NeutralText { color:#ef8d6c; } .ColorScheme-PositiveText { color:#e95e2f; } .ColorScheme-NegativeText { color:#671c60; }
  </style>
 </defs>
 <path style="opacity:.35;fill:currentColor" class="ColorScheme-Text" d="M 11 3 A 8 8 0 0 0 3 11 L 4.5 13 L 6 11 A 5 5 0 0 1 11 6 L 9 4.5 L 11 3 z M 17.5 9 L 16 11 A 5 5 0 0 1 11 16 L 13 17.5 L 11 19 A 8 8 0 0 0 19 11 L 17.5 9 z"/>
 <path style="fill:currentColor" class="ColorScheme-Text" d="M 11 3 L 9 4.5 L 11 6 A 5 5 0 0 1 16 11 L 17.5 9 L 19 11 A 8 8 0 0 0 11 3 z M 3 11 A 8 8 0 0 0 11 19 L 13 17.5 L 11 16 A 5 5 0 0 1 6 11 L 4.5 13 L 3 11 z"/>
</svg>
