<svg width="16" height="16" version="1.1" xmlns="http://www.w3.org/2000/svg">
 <path d="m0 8h6v-8h-6z" style="fill:#f09778"/>
 <path d="m6 8h3v-2h3v-6h-6z" style="fill:#e96132"/>
 <path d="m9 6v2h7v-2l-2-2 2-2v-2h-4v6z" style="fill:#54174f"/>
 <path d="m0 8v2h2v6h2v-6h2v-2z" style="fill:#631b5c"/>
 <path d="m4 10v6h4v-8h-2v2z" style="fill:#391036"/>
 <path d="m8 8v8h4v-8z" style="fill:#1b0719"/>
 <path d="m12 8v8h4v-2h-2v-6z" style="fill:#0d030c"/>
 <rect x="3" y="2" width="1" height="3" style="fill:#ffffff"/>
 <rect x="3" y="6" width="1" height="2" style="fill:#ffffff"/>
 <rect x="9" y="2" width="1" height="3" style="fill:#ffffff"/>
 <rect x="6" y="10" width="1" height="4" style="fill:#ffffff"/>
 <rect x="10" y="10" width="1" height="4" style="fill:#ffffff"/>
</svg>
