<svg xmlns="http://www.w3.org/2000/svg" width="16" height="16" version="1.1">
 <rect style="fill:#140513" width="16" height="16" x="0" y="0" ry="2.4"/>
 <rect style="fill:#f6c3b2" width="6" height="6" x="5" y="5"/>
 <rect style="fill:#ea6537" width="5" height="6" x="0" y="5"/>
 <rect style="fill:#ef8c6a" width="6" height="5" x="5" y="0"/>
 <rect style="fill:#f09475" width="5" height="6" x="11" y="5"/>
 <rect style="fill:#f2a389" width="6" height="5" x="5" y="11"/>
 <path style="fill:#140513" d="M 7 1 L 7 4 L 10 4 L 10 1 L 7 1 z M 2.5 6 L 1 9 L 4 9 L 2.5 6 z M 12 7 L 12 8 L 13 8 L 13 7 L 12 7 z M 13 8 L 13 9 L 14 9 L 14 8 L 13 8 z M 14 8 L 15 8 L 15 7 L 14 7 L 14 8 z M 14 9 L 14 10 L 15 10 L 15 9 L 14 9 z M 13 9 L 12 9 L 12 10 L 13 10 L 13 9 z M 6 12 L 6 15 L 7 15 L 7 12 L 6 12 z M 8 12 L 8 15 L 9 15 L 9 12 L 8 12 z"/>
</svg>
