<svg xmlns="http://www.w3.org/2000/svg" width="16" height="16" version="1">
 <rect style="fill:#230921" width="16" height="16" x="0" y="0" rx="4.8" ry="4.8"/>
 <path style="fill:#e85928" d="m 6,10 a 2,2 0 0 0 -2,2 2,2 0 0 0 2,2 2,2 0 0 0 2,-2 v -2 z"/>
 <path style="fill:#641b5e" d="m 6,6 h 2 v 4 H 6 C 4.892,10 4,9.108 4,8 4,6.892 4.892,6 6,6 Z"/>
 <circle style="fill:#e85a29" cx="10" cy="8" r="2"/>
 <path style="fill:#6c1e65" d="M 6,2 C 4.892,2 4,2.892 4,4 4,5.108 4.892,6 6,6 H 8 V 2 Z"/>
 <path style="fill:#ed7c56" d="m 8,2 h 2 c 1.108,0 2,0.892 2,2 0,1.108 -0.892,2 -2,2 H 8 Z"/>
</svg>
