<svg xmlns="http://www.w3.org/2000/svg" width="16" height="16" version="1">
 <rect style="fill:#2d0c2a" width="3" height="3" x="1" y="1" rx=".15" ry=".15"/>
 <rect style="fill:#f9ded5" width="3" height="3" x="5" y="1" rx=".15" ry=".15"/>
 <rect style="fill:#ea6234" width="3" height="3" x="9" y="1" rx=".15" ry=".15"/>
 <rect style="fill:#f9ded5" width="3" height="3" x="13" y="1" rx=".15" ry=".15"/>
 <rect style="fill:#f9ded5" width="3" height="3" x="1" y="5" rx=".15" ry=".15"/>
 <rect style="fill:#f9ded5" width="3" height="3" x="5" y="5" rx=".15" ry=".15"/>
 <rect style="fill:#ea6234" width="3" height="3" x="9" y="5" rx=".15" ry=".15"/>
 <rect style="fill:#f9ded5" width="3" height="3" x="13" y="5" rx=".15" ry=".15"/>
 <rect style="fill:#f9ded5" width="3" height="3" x="1" y="9" rx=".15" ry=".15"/>
 <rect style="fill:#2d0c2a" width="3" height="3" x="5" y="9" rx=".15" ry=".15"/>
 <rect style="fill:#f9ded5" width="3" height="3" x="9" y="9" rx=".15" ry=".15"/>
 <rect style="fill:#eb7046" width="3" height="3" x="13" y="9" rx=".15" ry=".15"/>
 <rect style="fill:#f9ded5" width="3" height="3" x="1" y="13" rx=".15" ry=".15"/>
 <rect style="fill:#f9ded5" width="3" height="3" x="5" y="13" rx=".15" ry=".15"/>
 <rect style="fill:#f9ded5" width="3" height="3" x="9" y="13" rx=".15" ry=".15"/>
 <rect style="fill:#f9ded5" width="3" height="3" x="13" y="13" rx=".15" ry=".15"/>
</svg>
