<svg xmlns="http://www.w3.org/2000/svg" width="16" height="16" version="1.1">
 <path style="fill:#2d0c2a" d="M 4,0 H 8 L 14,6 V 14 C 14,15.11 13.11,16 12,16 H 4 C 2.89,16 2,15.11 2,14 V 2 C 2,0.89 2.89,0 4,0 Z"/>
 <path style="fill:#42123d" d="m 10,0 h 4 v 4 z"/>
 <path style="fill:#fbe9e3" d="M 4,2 H 8 L 9,5 12,6 V 14 H 4 Z"/>
 <path style="fill:#f09475" d="m 8,2 4,4 H 8 Z"/>
 <rect style="fill:#6b1d64" width="2" height="3" x="4" y="10"/>
 <rect style="fill:#e85927" width="2" height="5" x="6" y="8"/>
 <rect style="fill:#ef8e6e" width="2" height="2" x="8" y="11"/>
 <rect style="fill:#ee8764" width="2" height="3" x="10" y="10"/>
</svg>
