<svg xmlns="http://www.w3.org/2000/svg" width="16" height="16" version="1.1">
 <rect style="fill:#f5bfad" width="12" height="12" x="0" y="0" rx="1" ry="1"/>
 <path style="fill:#ed805b" d="m0 4v5h4.428571c-1.52967-3.6464311-3.059303-4.9296417-4.428571-5z"/>
 <rect style="fill:#eb7045" width="12" height="12" x="2" y="2" rx="1" ry="1"/>
 <path style="fill:#721f6a" d="m2 6v5h4.428571c-1.52967-3.6464311-3.059303-4.9296417-4.428571-5z"/>
 <rect style="fill:#75206d" width="12" height="12" x="4" y="4" rx="1" ry="1"/>
 <circle style="fill:#f5bfad" cx="8" cy="10.75" r="1.75"/>
 <path style="fill:#3f113b" d="m4 8v5h4.428571c-1.52967-3.6464311-3.059303-4.9296417-4.428571-5z"/>
 <path style="fill:#f9ded5" d="m7 13h9c-4.5-11.25-9 0-9 0z"/>
</svg>
