<svg xmlns="http://www.w3.org/2000/svg" width="16" height="16" version="1">
 <rect style="fill:#40113c" width="16" height="16" x="0" y="0" rx=".8" ry=".8"/>
 <rect style="fill:#5c1956" width="2" height="2" x="2" y="8"/>
 <rect style="fill:#e95d2e" width="2" height="2" x="4" y="8"/>
 <rect style="fill:#e95c2b" width="2" height="2" x="6" y="8"/>
 <rect style="fill:#f6c1b0" width="2" height="2" x="8" y="8"/>
 <rect style="fill:#f3af98" width="2" height="2" x="10" y="8"/>
 <rect style="fill:#f3f3f3" width="2" height="2" x="12" y="8"/>
 <rect style="fill:#e95c2b" width="2" height="2" x="2" y="6"/>
 <rect style="fill:#f3f3f3" width="2" height="2" x="4" y="6"/>
 <rect style="fill:#5c1956" width="2" height="2" x="6" y="6"/>
 <rect style="fill:#f3f3f3" width="2" height="2" x="8" y="6"/>
 <rect style="fill:#f6c1b0" width="2" height="2" x="10" y="6"/>
 <rect style="fill:#e95c2b" width="2" height="2" x="12" y="6"/>
 <rect style="fill:#f3f3f3" width="2" height="2" x="2" y="4"/>
 <rect style="fill:#f9d7cd" width="2" height="2" x="4" y="4"/>
 <rect style="fill:#f3af98" width="2" height="2" x="6" y="4"/>
 <rect style="fill:#eb7248" width="2" height="2" x="8" y="4"/>
 <rect style="fill:#f9d7cd" width="2" height="2" x="10" y="4"/>
 <rect style="fill:#f3af98" width="2" height="2" x="4" y="10"/>
 <rect style="fill:#eb7248" width="2" height="2" x="6" y="10"/>
 <rect style="fill:#e95d2e" width="2" height="2" x="8" y="10"/>
 <rect style="fill:#f9d7cd" width="2" height="2" x="10" y="10"/>
 <rect style="fill:#e95d2e" width="2" height="2" x="12" y="10"/>
 <rect style="fill:#e95c2b" width="2" height="2" x="6" y="12"/>
 <rect style="fill:#f3f3f3" width="2" height="2" x="8" y="12"/>
 <rect style="fill:#5c1956" width="2" height="2" x="10" y="12"/>
 <rect style="fill:#eb7248" width="2" height="2" x="12" y="12"/>
 <rect style="fill:#f3af98" width="2" height="2" x="2" y="2"/>
 <rect style="fill:#e95d2e" width="2" height="2" x="4" y="2"/>
 <rect style="fill:#f9d7cd" width="2" height="2" x="6" y="2"/>
 <rect style="fill:#e95c2b" width="2" height="2" x="8" y="2"/>
</svg>
