<svg xmlns="http://www.w3.org/2000/svg" width="16" height="16" version="1.1">
 <g transform="translate(-4,2)">
  <rect style="fill:#350e31" width="4" height="12" x="5" y="1" rx="1" ry="1"/>
  <rect style="fill:#5f1a59" width="7" height="12" x="8" y="1"/>
  <path style="fill:#f4b5a0" d="M 7,10 C 6.446,10 6,10.433 6,10.971 V 11.029 C 6,11.567 6.446,12 7,12 H 15 V 10 Z"/>
 </g>
 <rect style="fill:#3b1037" width="4" height="12" x="5" y="1" rx="1" ry="1"/>
 <rect style="fill:#75206d" width="7" height="12" x="8" y="1"/>
 <path style="fill:#f4b5a0" d="M 7 10 C 6.446 10 6 10.433 6 10.971 L 6 11.029 C 6 11.567 6.446 12 7 12 L 15 12 L 15 10 L 7 10 z"/>
</svg>
