<svg xmlns="http://www.w3.org/2000/svg" width="16" height="16" version="1.1">
 <path style="fill:#6d1e66" d="m8-1e-7a8 8 0 0 0 -8 8h8z"/>
 <path style="fill:#e85320" d="m8 16a8 8 0 0 0 8 -8h-8z"/>
 <path style="fill:#2a0b27" d="m8-1e-7a8 8 0 0 1 8 8h-8z"/>
 <path style="fill:#ef8e6d" d="m8 16a8 8 0 0 1 -8 -8h8z"/>
 <circle style="fill:#f9f9f9" cx="8" cy="8" r="5"/>
 <path style="fill:#6d1e66" d="M 0,8 1.5,10 3,8 Z"/>
 <path style="fill:#e85320" d="M 16,8 14.5,6 13,8 Z"/>
 <path style="fill:#ef8e6d" d="M 8,16 10,14.5 8,13 Z"/>
 <path style="fill:#2a0b27" d="m 8,-1e-7 -2,1.5 2,1.5 z"/>
</svg>
