<svg width="16" height="16" version="1.1" xmlns="http://www.w3.org/2000/svg">
 <path d="m5 5-3-4" style="fill:none;stroke-linecap:round;stroke-linejoin:round;stroke-width:2;stroke:#20091e"/>
 <path d="m11 5 3-4" style="fill:none;stroke-linecap:round;stroke-linejoin:round;stroke-width:2;stroke:#20091e"/>
 <rect x="1" y="3" width="14" height="13" ry=".85714281" style="fill:#eb6f45"/>
 <rect x="3" y="10" width="10" height="5" style="fill:#1d081b"/>
 <circle cx="4.5" cy="6.5" r="2.5" style="fill:#551750"/>
 <circle cx="11.5" cy="6.5" r="2.5" style="fill:#551750"/>
 <circle cx="4.5" cy="6.5" r=".5" style="fill:#1d081b"/>
 <circle cx="11.5" cy="6.5" r=".5" style="fill:#1d081b"/>
 <path d="m4 11v1h1v-1h-1zm2 0v1h1v-1h-1zm2 0v1h1v-1h-1zm2 0v1h2v-1h-2zm-6 2v1h1v-1h-1zm2 0v1h1v-1h-1zm2 0v1h1v-1h-1zm2 0v1h2v-1h-2z" style="fill:#ffffff"/>
</svg>
