<svg width="16" height="16" version="1.1" xmlns="http://www.w3.org/2000/svg">
 <path d="m0.5 10.5v-7" style="fill:none;stroke-linecap:round;stroke-width:1px;stroke:#300d2d"/>
 <circle cx="1.5" cy="10.5" r="1.5" style="fill:#55174f"/>
 <path d="m15.5 10.5v-6.9999998" style="fill:none;stroke-linecap:round;stroke-width:1px;stroke:#300d2d"/>
 <circle cx="14.5" cy="10.5" r="1.5" style="fill:#55174f"/>
 <rect x="4" y="1" width="8" height="7" ry="1" style="fill:#55174f"/>
 <rect x="5" y="3" width="6" height="5" style="fill:#1d081b"/>
 <circle cx="8" cy="6" r="2" style="fill:#e95d2d"/>
 <path d="m2 14s2 1 6 1 6-1 6-1v-5c0-1-1-2-2-2h-8c-1 0-2 1-2 2v5z" style="fill:#ea6436"/>
 <circle cx="8" cy="2.5" r=".5" style="fill:#ffffff"/>
 <circle cx="5.5" cy="11.5" r="1.5" style="fill:#ffffff"/>
 <circle cx="10.5" cy="11.5" r="1.5" style="fill:#ffffff"/>
 <circle cx="8" cy="6" r="1" style="fill:#ffffff"/>
</svg>
