<svg xmlns="http://www.w3.org/2000/svg" width="48" height="48" version="1">
 <rect fill="#f9ded5" width="40" height="40" x="4" y="4" rx="2" ry="2"/>
 <path fill="#fff" opacity=".2" d="m6 4c-1.108 0-2 0.892-2 2v1c0-1.108 0.892-2 2-2h36c1.108 0 2 0.892 2 2v-1c0-1.108-0.892-2-2-2h-36z"/>
 <path opacity=".2" d="m6 45c-1.108 0-2-0.892-2-2v-1c0 1.108 0.892 2 2 2h36c1.108 0 2-0.892 2-2v1c0 1.108-0.892 2-2 2h-36z"/>
 <rect fill="#ea683b" width="13.111" height="13.111" x="-27.77" y="-6.56" rx=".656" ry=".656" transform="matrix(-.70711 -.70711 -.70711 .70711 0 0)"/>
 <rect fill="#ee8865" width="13.111" height="13.111" x="-40.5" y="-19.28" rx=".656" ry=".656" transform="matrix(-.70711 -.70711 -.70711 .70711 0 0)"/>
 <rect fill="#711f69" width="13.111" height="13.111" x="-40.5" y="6.17" rx=".656" ry=".656" transform="matrix(-.70711 -.70711 -.70711 .70711 0 0)"/>
 <rect fill="#eb6a3e" width="13.111" height="13.111" x="-53.23" y="-6.56" rx=".656" ry=".656" transform="matrix(-.70711 -.70711 -.70711 .70711 0 0)"/>
</svg>
