<svg xmlns="http://www.w3.org/2000/svg" width="48" height="48" version="1.1">
 <circle style="opacity:0.2" cx="24" cy="25" r="20"/>
 <circle style="fill:#ef8a68" cx="24" cy="24" r="19.5"/>
 <path style="fill:#f4b7a3" d="M 9.953125 38.166016 A 20 20 0 0 0 16.916016 42.650391 L 16.916016 38.166016 L 9.953125 38.166016 z"/>
 <path style="fill:#f5bba8" d="M 16.916016 38.166016 L 16.916016 42.650391 A 20 20 0 0 0 24 44 L 24 38.166016 L 16.916016 38.166016 z"/>
 <path style="fill:#f6c0ae" d="M 24 38.166016 L 24 44 A 20 20 0 0 0 31.083984 42.650391 L 31.083984 38.166016 L 24 38.166016 z"/>
 <path style="fill:#f6c4b3" d="M 31.083984 38.166016 L 31.083984 42.650391 A 20 20 0 0 0 38.046875 38.166016 L 31.083984 38.166016 z"/>
 <path style="fill:#f6c4b4" d="M 38.166016 31.083984 L 38.166016 38.046875 A 20 20 0 0 0 42.650391 31.083984 L 38.166016 31.083984 z"/>
 <path style="fill:#f6c1af" d="M 31.087891 31.080078 L 31.087891 38.162109 L 38.050781 38.162109 A 20 20 0 0 0 38.169922 38.042969 L 38.169922 31.080078 L 31.087891 31.080078 z"/>
 <rect style="fill:#f5bca9" width="7.083" height="7.083" x="-31.08" y="31.08" transform="scale(-1,1)"/>
 <rect style="fill:#f4b7a2" width="7.083" height="7.083" x="-24" y="31.08" transform="scale(-1,1)"/>
 <path style="fill:#f4b39d" d="M 9.8378906 31.080078 L 9.8378906 38.050781 A 20 20 0 0 0 9.9492188 38.162109 L 16.919922 38.162109 L 16.919922 31.080078 L 9.8378906 31.080078 z"/>
 <path style="fill:#f3ad96" d="M 5.3496094 31.083984 A 20 20 0 0 0 9.8339844 38.046875 L 9.8339844 31.083984 L 5.3496094 31.083984 z"/>
 <path style="fill:#f3a990" d="M 4 24 A 20 20 0 0 0 5.3496094 31.083984 L 9.8339844 31.083984 L 9.8339844 24 L 4 24 z"/>
 <rect style="fill:#f3ae97" width="7.083" height="7.083" x="9.83" y="24"/>
 <rect style="fill:#f4b29c" width="7.083" height="7.083" x="16.92" y="24"/>
 <rect style="fill:#f4b7a3" width="7.083" height="7.083" x="24" y="24"/>
 <rect style="fill:#f5bdab" width="7.083" height="7.083" x="31.08" y="24"/>
 <path style="fill:#f6c2b0" d="M 38.166016 24 L 38.166016 31.083984 L 42.650391 31.083984 A 20 20 0 0 0 44 24 L 38.166016 24 z"/>
 <path style="fill:#f5bca9" d="M 38.166016 16.916016 L 38.166016 24 L 44 24 A 20 20 0 0 0 42.697266 16.916016 L 38.166016 16.916016 z"/>
 <rect style="fill:#f5b8a4" width="7.083" height="7.083" x="-38.17" y="16.92" transform="scale(-1,1)"/>
 <rect style="fill:#f4b39d" width="7.083" height="7.083" x="-31.08" y="16.92" transform="scale(-1,1)"/>
 <rect style="fill:#f3ac94" width="7.083" height="7.083" x="-24" y="16.92" transform="scale(-1,1)"/>
 <rect style="fill:#f2a88f" width="7.083" height="7.083" x="-16.92" y="16.92" transform="scale(-1,1)"/>
 <path style="fill:#f2a389" d="M 5.3496094 16.916016 A 20 20 0 0 0 4 24 L 9.8339844 24 L 9.8339844 16.916016 L 5.3496094 16.916016 z"/>
 <path style="fill:#f19f83" d="M 9.8339844 9.953125 A 20 20 0 0 0 5.3496094 16.916016 L 9.8339844 16.916016 L 9.8339844 9.953125 z"/>
 <path style="fill:#f2a388" d="M 9.9570312 9.8300781 A 20 20 0 0 0 9.8300781 9.9570312 L 9.8300781 16.912109 L 16.912109 16.912109 L 16.912109 9.8300781 L 9.9570312 9.8300781 z"/>
 <rect style="fill:#f2a78e" width="7.083" height="7.083" x="16.92" y="9.83"/>
 <rect style="fill:#f3ad95" width="7.083" height="7.083" x="24" y="9.83"/>
 <path style="fill:#f4b39d" d="M 31.080078 9.8300781 L 31.080078 16.912109 L 38.162109 16.912109 L 38.162109 9.8789062 A 20 20 0 0 0 38.113281 9.8300781 L 31.080078 9.8300781 z"/>
 <path style="fill:#f5b8a3" d="M 38.166016 9.8828125 L 38.166016 16.916016 L 42.697266 16.916016 A 20 20 0 0 0 38.166016 9.8828125 z"/>
 <path style="fill:#f3ac93" d="M 31.083984 5.3027344 L 31.083984 9.8339844 L 38.117188 9.8339844 A 20 20 0 0 0 31.083984 5.3027344 z"/>
 <path style="fill:#f2a68d" d="M 24 4 L 24 9.8339844 L 31.083984 9.8339844 L 31.083984 5.3027344 A 20 20 0 0 0 24 4 z"/>
 <path style="fill:#f2a287" d="M 24 4 A 20 20 0 0 0 16.916016 5.3496094 L 16.916016 9.8339844 L 24 9.8339844 L 24 4 z"/>
 <path style="fill:#f19e82" d="M 16.916016 5.3496094 A 20 20 0 0 0 9.953125 9.8339844 L 16.916016 9.8339844 L 16.916016 5.3496094 z"/>
 <path style="opacity:0.2;fill:#ffffff" d="M 24 4 A 20 20 0 0 0 4 24 A 20 20 0 0 0 4.0351562 24.5 A 20 20 0 0 1 24 5 A 20 20 0 0 1 43.982422 24.25 A 20 20 0 0 0 44 24 A 20 20 0 0 0 24 4 z"/>
</svg>
