<svg xmlns="http://www.w3.org/2000/svg" width="24" height="24" version="1.1" viewBox="0 0 24 24">
 <defs>
  <linearGradient id="linearGradient4202" x1="1" x2="8" y1="8" y2="1" gradientUnits="userSpaceOnUse">
   <stop offset="0" stop-color="#441340"/>
   <stop offset=".313" stop-color="#471342"/>
   <stop offset=".563" stop-color="#4e1549"/>
   <stop offset=".75" stop-color="#50164a"/>
   <stop offset="1" stop-color="#51164c"/>
  </linearGradient>
  <linearGradient id="linearGradient4204" x1="1" x2="8" y1="8" y2="15" gradientUnits="userSpaceOnUse">
   <stop offset="0" stop-color="#3d1139"/>
   <stop offset=".313" stop-color="#3e113a"/>
   <stop offset=".563" stop-color="#3d1139"/>
   <stop offset=".75" stop-color="#4a1445"/>
   <stop offset="1" stop-color="#491444"/>
  </linearGradient>
  <linearGradient id="linearGradient4206" x1="15" x2="8" y1="8" y2="1" gradientUnits="userSpaceOnUse">
   <stop offset="0" stop-color="#f19a7d"/>
   <stop offset=".313" stop-color="#ef8e6c"/>
   <stop offset=".563" stop-color="#ec754d"/>
   <stop offset=".75" stop-color="#e85421"/>
   <stop offset="1" stop-color="#53174e"/>
  </linearGradient>
  <linearGradient id="linearGradient4208" x1="15" x2="8" y1="8" y2="15" gradientUnits="userSpaceOnUse">
   <stop offset="0" stop-color="#f19e82"/>
   <stop offset=".313" stop-color="#f3ab93"/>
   <stop offset=".563" stop-color="#f4b19a"/>
   <stop offset=".75" stop-color="#ee835f"/>
   <stop offset="1" stop-color="#e85523"/>
  </linearGradient>
 </defs>
 <g transform="translate(4,4)">
  <g transform="rotate(15,8,8)">
   <path style="fill:url(#linearGradient4206)" d="M 8,1 V 8 H 15 A 7,7 0 0 0 8,1 Z"/>
   <path style="fill:url(#linearGradient4202)" d="M 8,1 A 7,7 0 0 0 1,8 H 8 Z"/>
   <path style="fill:url(#linearGradient4208)" d="M 8,8 V 15 A 7,7 0 0 0 15,8 Z"/>
   <path style="fill:url(#linearGradient4204)" d="M 1,8 A 7,7 0 0 0 8,15 V 8 Z"/>
  </g>
  <g style="opacity:0.7">
   <path style="fill:url(#linearGradient4206)" d="M 8,1 V 8 H 15 A 7,7 0 0 0 8,1 Z"/>
   <path style="fill:url(#linearGradient4202)" d="M 8,1 A 7,7 0 0 0 1,8 H 8 Z"/>
   <path style="fill:url(#linearGradient4208)" d="M 8,8 V 15 A 7,7 0 0 0 15,8 Z"/>
   <path style="fill:url(#linearGradient4204)" d="M 1,8 A 7,7 0 0 0 8,15 V 8 Z"/>
  </g>
  <g style="opacity:0.35" transform="rotate(45,8,8)">
   <path style="fill:url(#linearGradient4206)" d="M 8,1 V 8 H 15 A 7,7 0 0 0 8,1 Z"/>
   <path style="fill:url(#linearGradient4202)" d="M 8,1 A 7,7 0 0 0 1,8 H 8 Z"/>
   <path style="fill:url(#linearGradient4208)" d="M 8,8 V 15 A 7,7 0 0 0 15,8 Z"/>
   <path style="fill:url(#linearGradient4204)" d="M 1,8 A 7,7 0 0 0 8,15 V 8 Z"/>
  </g>
  <g style="opacity:0.3" transform="rotate(60,8,8)">
   <path style="fill:url(#linearGradient4206)" d="M 8,1 V 8 H 15 A 7,7 0 0 0 8,1 Z"/>
   <path style="fill:url(#linearGradient4202)" d="M 8,1 A 7,7 0 0 0 1,8 H 8 Z"/>
   <path style="fill:url(#linearGradient4208)" d="M 8,8 V 15 A 7,7 0 0 0 15,8 Z"/>
   <path style="fill:url(#linearGradient4204)" d="M 1,8 A 7,7 0 0 0 8,15 V 8 Z"/>
  </g>
 </g>
</svg>
