<svg xmlns="http://www.w3.org/2000/svg" width="24" height="24" version="1">
 <path style="opacity:0.2" d="m 5,2.5 c -0.554,0 -1,0.446 -1,1 v 18 c 0,0.554 0.446,1 1,1 h 14 c 0.554,0 1,-0.446 1,-1 V 8.5 L 14.5,8 14,2.5 Z"/>
 <path style="fill:#340e31" d="M 5,2 C 4.446,2 4,2.446 4,3 v 18 c 0,0.554 0.446,1 1,1 h 14 c 0.554,0 1,-0.446 1,-1 V 8 L 14.5,7.5 14,2 Z"/>
 <path style="opacity:0.2" d="m 8,11.5 v 1 h 8 v -1 z m 0,2 v 1 h 8 v -1 z m 0,2 v 1 h 8 v -1 z m 0,2 v 1 h 5 v -1 z"/>
 <path style="opacity:0.1;fill:#ffffff" d="M 5,2 C 4.446,2 4,2.446 4,3 v 0.5 c 0,-0.554 0.446,-1 1,-1 h 9 L 19.5,8 H 20 L 14,2 Z"/>
 <path style="opacity:0.2" d="m 14,2.5 v 5 c 0,0.5523 0.447715,1 1,1 h 5 z"/>
 <path style="fill:#4e1549" d="m 14,2 v 5 c 0,0.5523 0.447715,1 1,1 h 5 z"/>
 <path style="fill:#e85928" d="m 8,18 v -1 h 5 v 1 z"/>
 <path style="fill:#f3af98" d="m 8,16 v -1 h 8 v 1 z"/>
 <path style="fill:#ef8b69" d="m 8,14 v -1 h 8 v 1 z"/>
 <path style="fill:#721f6a" d="m 8,12 v -1 h 8 v 1 z"/>
</svg>
