<svg xmlns="http://www.w3.org/2000/svg" width="24" height="24" version="1.1">
 <defs>
  <style id="current-color-scheme" type="text/css">
   .ColorScheme-Text { color:#ffffff; } .ColorScheme-Highlight { color:#721f6a; } .ColorScheme-NeutralText { color:#ef8d6c; } .ColorScheme-PositiveText { color:#e95e2f; } .ColorScheme-NegativeText { color:#671c60; }
  </style>
 </defs>
 <path style="fill:currentColor" class="ColorScheme-Text" d="m 8,4 0,4 -4,0 0,2 4,0 0,4 -4,0 0,2 4,0 0,4 2,0 0,-4 4,0 0,4 2,0 0,-4 4,0 0,-2 -4,0 0,-4 4,0 0,-2 -4,0 0,-4 -2,0 0,4 -4,0 0,-4 z m 2,6 4,0 0,4 -4,0 z"/>
</svg>
