<svg xmlns="http://www.w3.org/2000/svg" width="24" height="24" version="1">
 <rect style="opacity:0.2" width="21" height="19" x="2" y="2.5" rx="1.05" ry="1.056"/>
 <rect style="fill:#370f33" width="21" height="19" x="2" y="2" rx="1.05" ry="1.056"/>
 <rect style="fill:#f1997c" width="7" height="3" x="9" y="4"/>
 <rect style="fill:#ee8763" width="2" height="3" x="9" y="7"/>
 <rect style="fill:#ee8763" width="2" height="3" x="15" y="7"/>
 <rect style="fill:#ec7249" width="7" height="3" x="9" y="10"/>
 <rect style="fill:#e85826" width="2" height="3" x="9" y="13"/>
 <rect style="fill:#e85826" width="2" height="3" x="15" y="13"/>
 <rect style="fill:#5e1a58" width="7" height="3" x="9" y="16"/>
 <rect style="opacity:0.2" width="7" height=".5" x="9" y="7"/>
 <rect style="opacity:0.2" width="2" height=".5" x="9" y="10"/>
 <rect style="opacity:0.2" width="2" height=".5" x="15" y="10"/>
 <rect style="opacity:0.2" width="7" height=".5" x="9" y="13"/>
 <rect style="opacity:0.2" width="2" height=".5" x="9" y="16"/>
 <rect style="opacity:0.2" width="2" height=".5" x="15" y="16"/>
 <rect style="opacity:0.2" width="7" height=".5" x="9" y="19"/>
 <path style="fill:#ffffff;opacity:0.1" d="M 3.0507812 2 C 2.4690813 2 2 2.4699097 2 3.0546875 L 2 3.5546875 C 2 2.9699097 2.4690813 2.5 3.0507812 2.5 L 21.949219 2.5 C 22.530919 2.5 23 2.9699097 23 3.5546875 L 23 3.0546875 C 23 2.4699097 22.530919 2 21.949219 2 L 3.0507812 2 z"/>
</svg>
