<svg width="64" height="64" version="1.1" xmlns="http://www.w3.org/2000/svg">
 <path d="m10 43h40v12h-8v6h-24v-6h-8z" style="opacity:.2"/>
 <path d="m10 42.000002h40v12h-8v6h-24v-6h-8z" style="fill:#40113c"/>
 <path d="m10 15h40v32h-8v8h-24v-8h-8z" style="opacity:.2"/>
 <path d="m10 14.000002h40v32h-8v8h-24v-8h-8z" style="fill:#631b5d"/>
 <rect x="10" y="28" width="40" height="8" style="fill:#3b1037"/>
 <rect x="36" y="29" width="8" height="8" style="opacity:.1"/>
 <rect x="36" y="28" width="8" height="8" style="fill:#1d081b"/>
 <rect x="16" y="29" width="8" height="8" style="opacity:.1"/>
 <rect x="16" y="28" width="8" height="8" style="fill:#1d081b"/>
 <rect x="24" y="37" width="12" height="4" style="opacity:.2"/>
 <path d="m10 12v11h26v-11zm26 7v10h14v-10z" style="opacity:.1"/>
 <path d="m10 11.000002v11h26v-11zm26 7v10h14v-10z" style="fill:#2d0c2a"/>
 <path d="m10 5v10h26v8h18v-18z" style="opacity:.2"/>
 <path d="m10 4.000002v10h26v8h18v-18z" style="fill:#230921"/>
 <rect x="24" y="36" width="12" height="4" style="fill:#ea6537"/>
 <rect x="22" y="46" width="16" height="4" style="fill:#220920"/>
 <rect x="36" y="4" width="18" height="18" style="fill:#1b0719"/>
 <path d="m10 4v1h44v-1h-44z" style="fill:#ffffff;opacity:.1"/>
</svg>
