<svg xmlns="http://www.w3.org/2000/svg" height="64" width="64" version="1.1">
 <circle cx="32" cy="33" r="28" style="opacity:.2"/>
 <circle cx="32" cy="32" r="28" style="fill:#f9ded5"/>
 <path d="m32 4a28 28 0 0 0 -28 28 28 28 0 0 0 0.0215 0.586 28 28 0 0 1 27.9785 -27.586 28 28 0 0 1 27.979 27.414 28 28 0 0 0 0.021 -0.414 28 28 0 0 0 -28 -28z" style="opacity:.2;fill:#ffffff"/>
 <circle r="16" style="opacity:.2" cx="32" cy="33"/>
 <circle r="16" style="fill:#5f1a59" cx="32" cy="32"/>
 <path style="fill:#54174e" d="m32 16a16 16 0 0 0 -9.132812 2.886719l9.132812 14.113281 9.140625-14.125a16 16 0 0 0 -9.140625 -2.875z"/>
 <path style="fill:#f7cdbf" d="m32 33l-8.220703 12.703125a16 16 0 0 0 8.220703 2.296875 16 16 0 0 0 8.220703 -2.294922l-8.220703-12.705078z"/>
 <path style="fill:#f19f84" d="m32 33l8.220703 12.705078a16 16 0 0 0 7.728516 -12.705078h-15.949219z"/>
 <path style="fill:#55174f" d="m41.140625 18.875l-9.140625 14.125h15.949219a16 16 0 0 0 0.050781 -1 16 16 0 0 0 -6.859375 -13.125z"/>
 <path style="fill:#711f6a" d="m16.037109 33a16 16 0 0 0 7.742188 12.703125l8.220703-12.703125h-15.962891z"/>
 <circle r="12" style="opacity:.1" cx="32" cy="33"/>
 <circle r="12" style="fill:#2d0c2a" cx="32" cy="32"/>
 <path style="opacity:.2;fill:#ffffff" d="m32 16a16 16 0 0 0 -16 16 16 16 0 0 0 0.021484 0.580078 16 16 0 0 1 15.978516 -15.580078 16 16 0 0 1 15.978516 15.419922 16 16 0 0 0 0.021484 -0.419922 16 16 0 0 0 -16 -16z"/>
 <circle r="3" style="opacity:.2" cx="27" cy="29"/>
 <circle r="3" style="fill:#ffffff" cx="27" cy="28"/>
</svg>
