<svg xmlns="http://www.w3.org/2000/svg" width="64" height="64" version="1">
 <circle style="opacity:0.2" cx="32" cy="33" r="28"/>
 <circle style="fill:#40113c" cx="32" cy="32" r="28"/>
 <circle style="fill:#2d0c2a" cx="32" cy="32" r="22"/>
 <circle style="opacity:0.2" cx="32" cy="33" r="16"/>
 <circle style="fill:#f3ae97" cx="32" cy="32" r="16"/>
 <circle style="fill:#2d0c2a" cx="32" cy="32" r="8"/>
 <path style="fill:#ffffff;opacity:0.1" d="M 32 4 A 28 28 0 0 0 4 32 A 28 28 0 0 0 4.0215 32.586 A 28 28 0 0 1 32 5 A 28 28 0 0 1 59.979 32.414 A 28 28 0 0 0 60 32 A 28 28 0 0 0 32 4 z"/>
 <path style="fill:#ffffff;opacity:0.2" d="M 32 16 A 16 16 0 0 0 16 32 A 16 16 0 0 0 16.021 32.58 A 16 16 0 0 1 32 17 A 16 16 0 0 1 47.979 32.42 A 16 16 0 0 0 48 32 A 16 16 0 0 0 32 16 z"/>
</svg>
