<svg xmlns="http://www.w3.org/2000/svg" width="24" height="24" version="1.1">
 <defs>
  <style id="current-color-scheme" type="text/css">
   .ColorScheme-Text { color:#21091f; } .ColorScheme-Highlight { color:#721f6a; } .ColorScheme-NeutralText { color:#ef8d6c; } .ColorScheme-PositiveText { color:#e95e2f; } .ColorScheme-NegativeText { color:#671c60; }
  </style>
 </defs>
 <g transform="translate(-385 127)">
  <path style="fill:currentColor" class="ColorScheme-NeutralText" d="m396.91-123a1.6243 1.8185 0 0 0 -1.3184 0.90625l-3.1875 6.1816-3.1894 6.1816a1.6243 1.8185 0 0 0 -0.2168 0.86719 1.6243 1.8185 0 0 0 1.623 1.8613h6.377 6.375a1.6243 1.8185 0 0 0 1.4062 -2.7285l-3.1875-6.1816-3.1875-6.1816a1.6243 1.8185 0 0 0 -1.332 -0.90625 1.6243 1.8185 0 0 0 -0.16211 0zm-0.91211 3.998h2v7h-2v-7zm0 8h2v2h-2v-2z"/>
 </g>
</svg>
