<svg xmlns="http://www.w3.org/2000/svg" width="16" height="16" viewBox="0 0 16 16">
 <defs>
  <style id="current-color-scheme" type="text/css">
   .ColorScheme-Text { color:#f9d8cd; } .ColorScheme-Highlight { color:#721f6a; } .ColorScheme-NeutralText { color:#ef8d6c; } .ColorScheme-PositiveText { color:#e95e2f; } .ColorScheme-NegativeText { color:#671c60; }
  </style>
 </defs>
 <path style="fill:currentColor" class="ColorScheme-Text" d="m1 1v14h14v-14h-14zm2 2h2v2h2v-2h2v2h2v-2h2v2h-2v2h2v2h-2v2h2v2h-2v-2h-2v2h-2v-2h-2v2h-2v-2h2v-2h-2v-2h2v-2h-2v-2zm4 8v-6l-2 3 2 3zm2 0l2-3-2-3v6z"/>
</svg>
